{
  "asset": {
    "version": "2.0",
    "generator": "ori-cgltf-fixture"
  },
  "scene": 0,
  "scenes": [
    {
      "name": "Scene",
      "nodes": [0]
    }
  ],
  "nodes": [
    {
      "name": "Triangle",
      "mesh": 0,
      "translation": [1.5, 2.0, -0.5],
      "rotation": [0.0, 0.0, 0.0, 1.0],
      "scale": [2.0, 2.0, 2.0]
    }
  ],
  "meshes": [
    {
      "name": "TriangleMesh",
      "primitives": [
        {
          "attributes": {
            "POSITION": 0,
            "NORMAL": 1
          },
          "indices": 2,
          "material": 0
        }
      ]
    }
  ],
  "materials": [
    {
      "name": "Tinted",
      "pbrMetallicRoughness": {
        "baseColorFactor": [0.5, 0.25, 1.0, 1.0],
        "metallicFactor": 0.0,
        "roughnessFactor": 1.0
      }
    }
  ],
  "accessors": [
    {
      "bufferView": 0,
      "componentType": 5126,
      "count": 3,
      "type": "VEC3",
      "max": [1.0, 1.0, 0.0],
      "min": [0.0, 0.0, 0.0]
    },
    {
      "bufferView": 1,
      "componentType": 5126,
      "count": 3,
      "type": "VEC3"
    },
    {
      "bufferView": 2,
      "componentType": 5123,
      "count": 3,
      "type": "SCALAR"
    }
  ],
  "bufferViews": [
    {
      "buffer": 0,
      "byteOffset": 0,
      "byteLength": 36,
      "target": 34962
    },
    {
      "buffer": 0,
      "byteOffset": 36,
      "byteLength": 36,
      "target": 34962
    },
    {
      "buffer": 0,
      "byteOffset": 72,
      "byteLength": 6,
      "target": 34963
    }
  ],
  "buffers": [
    {
      "byteLength": 78,
      "uri": "data:application/octet-stream;base64,"
    }
  ]
}
